<?xml version="1.0" encoding="UTF-8"?>
<svg id="Layer_2" data-name="Layer 2" xmlns="http://www.w3.org/2000/svg" viewBox="0 0 479.12 110.35">
  <defs>
    <style>
      .cls-1 {
        fill: #1f2321;
      }
    </style>
  </defs>
  <g id="FINAL_ORIGINALS" data-name="FINAL ORIGINALS">
    <g>
      <g>
        <path class="cls-1" d="M.44.76h24.1c5.63,0,9.89,1.61,12.81,4.83,2.91,3.22,4.37,7.44,4.37,12.66,0,3.34-.71,6.31-2.13,8.89-1.42,2.58-3.46,4.6-6.12,6.04s-5.74,2.17-9.24,2.17h-11.56v14.37H.44V.76ZM21.5,25.92c2.53,0,4.46-.7,5.78-2.09,1.32-1.39,1.98-3.28,1.98-5.66,0-2.58-.61-4.56-1.82-5.93-1.22-1.37-3.07-2.05-5.55-2.05h-9.2v15.74h8.82Z"/>
        <path class="cls-1" d="M48.41.76h36.11v9.43h-23.87v10.26h21.06v9.58h-21.06v10.26h23.87v9.43h-36.11V.76Z"/>
        <path class="cls-1" d="M92.27.76h24.48c5.62,0,9.84,1.48,12.66,4.45,2.81,2.96,4.22,7.08,4.22,12.35,0,3.29-.82,6.18-2.47,8.67-1.65,2.48-3.94,4.33-6.88,5.55.66.56,1.2,1.17,1.63,1.82.43.66.92,1.62,1.48,2.89l5.78,13.23h-12.77l-5.47-12.47c-.46-1.11-1.04-1.9-1.75-2.36-.71-.46-1.72-.68-3.04-.68h-5.63v15.51h-12.24V.76ZM113.56,24.78c2.43,0,4.31-.61,5.63-1.83,1.32-1.22,1.98-3.01,1.98-5.4,0-4.92-2.36-7.37-7.07-7.37h-9.58v14.6h9.05Z"/>
        <path class="cls-1" d="M148.26,49.75c-2.81-.48-5.23-1.18-7.26-2.09v-10.41c2.28,1.01,4.76,1.81,7.45,2.39,2.69.58,5.25.87,7.68.87,3.29,0,5.62-.29,6.99-.87,1.37-.58,2.05-1.79,2.05-3.61,0-1.27-.35-2.27-1.06-3-.71-.73-1.79-1.37-3.23-1.9-1.44-.53-3.81-1.28-7.11-2.24-3.4-1.01-6.07-2.14-8.02-3.38-1.95-1.24-3.36-2.74-4.22-4.49-.86-1.75-1.29-3.94-1.29-6.58,0-4.71,1.68-8.3,5.06-10.76,3.37-2.46,8.3-3.69,14.79-3.69,2.69,0,5.38.2,8.1.61,2.71.41,4.95.91,6.73,1.52v10.49c-4.21-1.67-8.54-2.51-13-2.51-3.09,0-5.4.29-6.92.87-1.52.58-2.28,1.71-2.28,3.38,0,1.06.3,1.91.91,2.55.61.63,1.58,1.19,2.93,1.67,1.34.48,3.46,1.1,6.35,1.86,3.9,1.06,6.93,2.33,9.08,3.8,2.15,1.47,3.65,3.15,4.48,5.05.84,1.9,1.25,4.14,1.25,6.73,0,4.46-1.72,7.98-5.17,10.57-3.45,2.58-8.51,3.88-15.2,3.88-3.24,0-6.27-.24-9.08-.72Z"/>
        <path class="cls-1" d="M185.85.76h24.1c5.63,0,9.89,1.61,12.81,4.83,2.91,3.22,4.37,7.44,4.37,12.66,0,3.34-.71,6.31-2.13,8.89-1.42,2.58-3.46,4.6-6.12,6.04s-5.74,2.17-9.24,2.17h-11.56v14.37h-12.24V.76ZM206.9,25.92c2.53,0,4.46-.7,5.78-2.09,1.32-1.39,1.98-3.28,1.98-5.66,0-2.58-.61-4.56-1.82-5.93-1.22-1.37-3.07-2.05-5.55-2.05h-9.2v15.74h8.82Z"/>
        <path class="cls-1" d="M233.81.76h36.11v9.43h-23.87v10.26h21.06v9.58h-21.06v10.26h23.87v9.43h-36.11V.76Z"/>
        <path class="cls-1" d="M278.78,43.94c-4.54-4.36-6.8-10.46-6.8-18.32,0-8.26,2.2-14.6,6.61-19s10.95-6.61,19.61-6.61c2.84,0,5.44.22,7.79.65,2.36.43,4.7,1.05,7.03,1.86v10.72c-4.41-1.82-9.05-2.74-13.91-2.74s-8.78,1.22-11.14,3.65-3.53,6.26-3.53,11.48c0,4.92,1.23,8.55,3.69,10.91,2.46,2.36,6.17,3.54,11.14,3.54s9.53-.89,13.84-2.66v10.79c-4.46,1.52-9.4,2.28-14.82,2.28-8.46,0-14.96-2.18-19.5-6.54Z"/>
        <path class="cls-1" d="M330.66,10.19h-14.37V.76h40.97v9.43h-14.37v39.53h-12.24V10.19Z"/>
        <path class="cls-1" d="M363.88.76h12.24v48.96h-12.24V.76Z"/>
        <path class="cls-1" d="M384.25.76h12.77l12.47,34.97L422.03.76h12.85l-18.7,48.96h-13.23L384.25.76Z"/>
        <path class="cls-1" d="M443.01.76h36.11v9.43h-23.87v10.26h21.06v9.58h-21.06v10.26h23.87v9.43h-36.11V.76Z"/>
      </g>
      <g>
        <path class="cls-1" d="M0,68.85h16.56c6.13,0,10.64,1.63,13.52,4.89,2.88,3.26,4.31,8.52,4.31,15.8s-1.44,12.09-4.31,15.33c-2.88,3.24-7.38,4.85-13.52,4.85H0v-40.87ZM15.48,104.39c2.83,0,5.11-.41,6.82-1.24,1.71-.83,3-2.32,3.87-4.47.87-2.16,1.3-5.2,1.3-9.14s-.4-7.06-1.21-9.26c-.8-2.2-2.06-3.75-3.78-4.66-1.71-.91-4.05-1.36-7.01-1.36H6.92v30.14h8.57Z"/>
        <path class="cls-1" d="M41.82,68.85h28.49v5.39h-21.58v12.37h19.23v5.33h-19.23v12.44h21.58v5.33h-28.49v-40.87Z"/>
        <path class="cls-1" d="M76.97,108.32v-6.09c3.93,1.52,7.97,2.29,12.12,2.29,3.43,0,5.91-.4,7.46-1.21,1.54-.8,2.32-2.31,2.32-4.51,0-1.4-.33-2.51-.98-3.33-.66-.83-1.72-1.53-3.2-2.13-1.48-.59-3.7-1.27-6.66-2.03-4.4-1.14-7.49-2.59-9.26-4.35-1.78-1.75-2.67-4.18-2.67-7.27,0-3.64,1.33-6.46,4-8.47,2.67-2.01,6.56-3.01,11.68-3.01,2.24,0,4.41.16,6.5.48s3.8.71,5.11,1.17v6.09c-3.22-1.23-6.77-1.84-10.66-1.84-3.22,0-5.63.42-7.23,1.27-1.61.85-2.41,2.28-2.41,4.32,0,1.23.3,2.21.89,2.95.59.74,1.58,1.4,2.95,1.97,1.37.57,3.44,1.2,6.19,1.87,4.78,1.23,8.1,2.81,9.96,4.76,1.86,1.95,2.79,4.46,2.79,7.55,0,3.64-1.36,6.47-4.09,8.5-2.73,2.03-6.74,3.05-12.02,3.05s-9.54-.68-12.75-2.03Z"/>
        <path class="cls-1" d="M113.2,68.85h6.92v40.87h-6.92v-40.87Z"/>
        <path class="cls-1" d="M132.69,104.99c-3.47-3.57-5.2-8.54-5.2-14.88,0-6.89,1.71-12.27,5.14-16.12,3.43-3.85,8.54-5.77,15.36-5.77,4.53,0,8.57.61,12.12,1.84v5.96c-3.51-1.27-7.36-1.9-11.55-1.9-5.04,0-8.64,1.32-10.82,3.97-2.18,2.64-3.27,6.65-3.27,12.02,0,9.6,4.51,14.41,13.52,14.41,3.64,0,6.58-.42,8.82-1.27v-11.42h-10.22v-4.51h16.12v19.67c-1.52.97-3.52,1.78-6,2.41-2.48.63-5.45.95-8.92.95-6.6,0-11.63-1.79-15.1-5.36Z"/>
        <path class="cls-1" d="M170.06,68.85h6.09l21.32,30.08v-30.08h6.85v40.87h-6.09l-21.26-30.01v30.01h-6.92v-40.87Z"/>
        <path class="cls-1" d="M241.07,104.99c-3.47-3.57-5.2-8.54-5.2-14.88,0-6.89,1.71-12.27,5.14-16.12,3.43-3.85,8.54-5.77,15.36-5.77,4.53,0,8.57.61,12.12,1.84v5.96c-3.51-1.27-7.36-1.9-11.55-1.9-5.04,0-8.64,1.32-10.82,3.97-2.18,2.64-3.27,6.65-3.27,12.02,0,9.6,4.51,14.41,13.52,14.41,3.64,0,6.58-.42,8.82-1.27v-11.42h-10.22v-4.51h16.12v19.67c-1.52.97-3.52,1.78-6,2.41-2.48.63-5.45.95-8.92.95-6.6,0-11.63-1.79-15.1-5.36Z"/>
        <path class="cls-1" d="M278.44,68.85h18.78c4.44,0,7.74,1.14,9.9,3.43s3.24,5.5,3.24,9.65c0,2.92-.73,5.38-2.19,7.39-1.46,2.01-3.52,3.42-6.19,4.22.72.51,1.29,1.07,1.71,1.68.42.61.87,1.49,1.33,2.63l5.14,11.87h-7.11l-5.01-11.42c-.51-1.14-1.1-1.94-1.78-2.38-.68-.44-1.76-.67-3.24-.67h-7.68v14.47h-6.92v-40.87ZM295.39,89.67c5.37,0,8.06-2.58,8.06-7.74s-2.47-7.68-7.42-7.68h-10.66v15.42h10.03Z"/>
        <path class="cls-1" d="M320.36,105.24c-3.19-3.41-4.79-8.68-4.79-15.83s1.59-12.73,4.76-16.12,8.04-5.08,14.6-5.08,11.42,1.69,14.6,5.08c3.17,3.38,4.76,8.76,4.76,16.12s-1.6,12.43-4.79,15.83c-3.19,3.41-8.05,5.11-14.56,5.11s-11.37-1.7-14.56-5.11ZM344.37,100.96c1.99-2.37,2.98-6.22,2.98-11.55s-.98-9.48-2.95-11.8c-1.97-2.33-5.13-3.49-9.49-3.49s-7.46,1.16-9.42,3.49c-1.97,2.33-2.95,6.26-2.95,11.8s.99,9.13,2.98,11.52c1.99,2.39,5.12,3.59,9.39,3.59s7.47-1.18,9.46-3.55Z"/>
        <path class="cls-1" d="M366.01,106.29c-3.09-2.71-4.63-6.62-4.63-11.74v-25.7h6.92v25.45c0,3.38.93,5.93,2.79,7.65,1.86,1.71,4.55,2.57,8.06,2.57s6.13-.86,8-2.57c1.86-1.71,2.79-4.26,2.79-7.65v-25.45h6.85v25.7c0,5.12-1.53,9.03-4.6,11.74-3.07,2.71-7.41,4.06-13.04,4.06s-10.05-1.35-13.14-4.06Z"/>
        <path class="cls-1" d="M405.1,68.85h18.21c4.53,0,7.94,1.25,10.25,3.74,2.31,2.5,3.46,5.8,3.46,9.9s-1.26,7.32-3.78,9.77c-2.52,2.45-5.91,3.68-10.18,3.68h-11.04v13.77h-6.92v-40.87ZM421.79,90.49c2.67,0,4.72-.71,6.16-2.13,1.44-1.42,2.16-3.37,2.16-5.87,0-2.62-.68-4.65-2.03-6.09-1.35-1.44-3.34-2.16-5.96-2.16h-10.09v16.25h9.77Z"/>
      </g>
    </g>
  </g>
</svg>