<?xml version="1.0" encoding="UTF-8"?>
<svg id="Layer_2" data-name="Layer 2" xmlns="http://www.w3.org/2000/svg" viewBox="0 0 560.95 99.28">
  <defs>
    <style>
      .cls-1 {
        fill: #4fbaea;
      }

      .cls-2 {
        fill: #fff;
      }
    </style>
  </defs>
  <g id="FINAL_ORIGINALS" data-name="FINAL ORIGINALS">
    <g>
      <g>
        <path class="cls-2" d="M118.1,4.08h22.29c5.2,0,9.15,1.49,11.85,4.47,2.7,2.98,4.04,6.88,4.04,11.71,0,3.09-.66,5.84-1.97,8.23-1.31,2.39-3.2,4.25-5.66,5.59-2.46,1.34-5.31,2-8.54,2h-10.69v13.29h-11.32V4.08ZM137.59,27.36c2.34,0,4.12-.64,5.34-1.93,1.22-1.29,1.83-3.03,1.83-5.24,0-2.39-.56-4.22-1.69-5.49-1.12-1.27-2.84-1.9-5.13-1.9h-8.51v14.56h8.16Z"/>
        <path class="cls-2" d="M162.48,4.08h33.41v8.72h-22.08v9.49h19.48v8.86h-19.48v9.49h22.08v8.72h-33.41V4.08Z"/>
        <path class="cls-2" d="M203.06,4.08h22.65c5.2,0,9.11,1.37,11.71,4.11,2.6,2.74,3.9,6.55,3.9,11.43,0,3.05-.76,5.72-2.29,8.02-1.52,2.3-3.65,4.01-6.37,5.13.61.52,1.11,1.08,1.51,1.69.4.61.85,1.5,1.37,2.67l5.34,12.24h-11.81l-5.06-11.53c-.42-1.03-.96-1.76-1.62-2.18-.66-.42-1.59-.63-2.81-.63h-5.2v14.35h-11.32V4.08ZM222.75,26.3c2.25,0,3.98-.56,5.2-1.69,1.22-1.12,1.83-2.79,1.83-4.99,0-4.55-2.18-6.82-6.54-6.82h-8.86v13.5h8.37Z"/>
        <path class="cls-2" d="M254.85,49.41c-2.6-.44-4.84-1.09-6.72-1.93v-9.63c2.11.94,4.41,1.68,6.89,2.22,2.48.54,4.85.81,7.1.81,3.05,0,5.2-.27,6.47-.81,1.27-.54,1.9-1.65,1.9-3.34,0-1.17-.33-2.1-.99-2.78-.66-.68-1.65-1.27-2.99-1.76-1.34-.49-3.53-1.18-6.58-2.07-3.14-.94-5.62-1.98-7.42-3.13-1.81-1.15-3.11-2.53-3.9-4.15-.8-1.62-1.2-3.65-1.2-6.08,0-4.36,1.56-7.68,4.68-9.95,3.12-2.27,7.68-3.41,13.68-3.41,2.48,0,4.98.19,7.49.56,2.51.38,4.58.84,6.22,1.41v9.71c-3.89-1.55-7.9-2.32-12.03-2.32-2.86,0-4.99.27-6.4.81-1.41.54-2.11,1.58-2.11,3.13,0,.98.28,1.77.84,2.36.56.59,1.46,1.1,2.71,1.55,1.24.45,3.2,1.02,5.87,1.72,3.61.98,6.41,2.16,8.4,3.52,1.99,1.36,3.38,2.92,4.15,4.68.77,1.76,1.16,3.83,1.16,6.22,0,4.13-1.59,7.38-4.78,9.78-3.19,2.39-7.88,3.59-14.07,3.59-3,0-5.8-.22-8.4-.67Z"/>
        <path class="cls-2" d="M289.63,4.08h22.29c5.2,0,9.15,1.49,11.85,4.47,2.7,2.98,4.04,6.88,4.04,11.71,0,3.09-.66,5.84-1.97,8.23-1.31,2.39-3.2,4.25-5.66,5.59-2.46,1.34-5.31,2-8.54,2h-10.69v13.29h-11.32V4.08ZM309.11,27.36c2.34,0,4.12-.64,5.34-1.93,1.22-1.29,1.83-3.03,1.83-5.24,0-2.39-.56-4.22-1.69-5.49-1.12-1.27-2.84-1.9-5.13-1.9h-8.51v14.56h8.16Z"/>
        <path class="cls-2" d="M334.01,4.08h33.41v8.72h-22.08v9.49h19.48v8.86h-19.48v9.49h22.08v8.72h-33.41V4.08Z"/>
        <path class="cls-2" d="M375.61,44.03c-4.2-4.03-6.29-9.68-6.29-16.95,0-7.64,2.04-13.5,6.12-17.58s10.13-6.12,18.14-6.12c2.62,0,5.03.2,7.21.6,2.18.4,4.35.97,6.51,1.72v9.92c-4.08-1.69-8.37-2.53-12.87-2.53s-8.12,1.12-10.3,3.38c-2.18,2.25-3.27,5.79-3.27,10.62,0,4.55,1.14,7.91,3.41,10.09,2.27,2.18,5.71,3.27,10.3,3.27s8.81-.82,12.8-2.46v9.99c-4.13,1.41-8.7,2.11-13.71,2.11-7.83,0-13.84-2.02-18.04-6.05Z"/>
        <path class="cls-2" d="M423.6,12.8h-13.29V4.08h37.91v8.72h-13.29v36.57h-11.32V12.8Z"/>
        <path class="cls-2" d="M454.34,4.08h11.32v45.29h-11.32V4.08Z"/>
        <path class="cls-2" d="M473.18,4.08h11.82l11.53,32.35,11.6-32.35h11.89l-17.3,45.29h-12.24l-17.3-45.29Z"/>
        <path class="cls-2" d="M527.55,4.08h33.41v8.72h-22.08v9.49h19.48v8.86h-19.48v9.49h22.08v8.72h-33.41V4.08Z"/>
      </g>
      <g>
        <path class="cls-2" d="M118.1,64.18h14.01c5.19,0,9,1.38,11.43,4.13,2.43,2.76,3.65,7.21,3.65,13.36s-1.22,10.22-3.65,12.96c-2.43,2.74-6.24,4.11-11.43,4.11h-14.01v-34.56ZM131.2,94.23c2.4,0,4.32-.35,5.77-1.05,1.45-.7,2.54-1.96,3.27-3.78.73-1.82,1.1-4.4,1.1-7.73s-.34-5.98-1.02-7.84c-.68-1.86-1.74-3.17-3.19-3.94-1.45-.77-3.43-1.15-5.93-1.15h-7.25v25.49h7.25Z"/>
        <path class="cls-2" d="M153.47,64.18h24.1v4.56h-18.25v10.47h16.26v4.51h-16.26v10.52h18.25v4.51h-24.1v-34.56Z"/>
        <path class="cls-2" d="M183.2,97.56v-5.15c3.33,1.29,6.74,1.93,10.25,1.93,2.9,0,5-.34,6.31-1.02,1.31-.68,1.96-1.95,1.96-3.81,0-1.18-.28-2.12-.83-2.82-.56-.7-1.46-1.3-2.71-1.8-1.25-.5-3.13-1.07-5.63-1.72-3.72-.97-6.33-2.19-7.84-3.68-1.5-1.48-2.25-3.53-2.25-6.15,0-3.08,1.13-5.46,3.38-7.16,2.25-1.7,5.55-2.55,9.88-2.55,1.9,0,3.73.13,5.5.4,1.77.27,3.21.6,4.32.99v5.15c-2.72-1.04-5.72-1.56-9.02-1.56-2.72,0-4.76.36-6.12,1.07-1.36.72-2.04,1.93-2.04,3.65,0,1.04.25,1.87.75,2.5.5.63,1.33,1.18,2.5,1.66,1.16.48,2.91,1.01,5.23,1.58,4.04,1.04,6.85,2.38,8.43,4.02,1.57,1.65,2.36,3.78,2.36,6.39,0,3.08-1.15,5.47-3.46,7.19-2.31,1.72-5.7,2.58-10.17,2.58s-8.07-.57-10.79-1.72Z"/>
        <path class="cls-2" d="M213.85,64.18h5.85v34.56h-5.85v-34.56Z"/>
        <path class="cls-2" d="M230.32,94.74c-2.93-3.02-4.4-7.22-4.4-12.58,0-5.83,1.45-10.38,4.35-13.63,2.9-3.26,7.23-4.88,12.99-4.88,3.83,0,7.25.52,10.25,1.56v5.04c-2.97-1.07-6.23-1.61-9.77-1.61-4.26,0-7.31,1.12-9.15,3.35-1.84,2.24-2.76,5.63-2.76,10.17,0,8.12,3.81,12.18,11.43,12.18,3.08,0,5.56-.36,7.46-1.07v-9.66h-8.64v-3.81h13.63v16.64c-1.29.82-2.98,1.5-5.07,2.04-2.09.54-4.61.81-7.54.81-5.58,0-9.84-1.51-12.77-4.54Z"/>
        <path class="cls-2" d="M261.93,64.18h5.15l18.03,25.44v-25.44h5.8v34.56h-5.15l-17.98-25.39v25.39h-5.85v-34.56Z"/>
        <path class="cls-2" d="M321.99,94.74c-2.93-3.02-4.4-7.22-4.4-12.58,0-5.83,1.45-10.38,4.35-13.63,2.9-3.26,7.23-4.88,12.99-4.88,3.83,0,7.25.52,10.25,1.56v5.04c-2.97-1.07-6.23-1.61-9.77-1.61-4.26,0-7.31,1.12-9.15,3.35-1.84,2.24-2.76,5.63-2.76,10.17,0,8.12,3.81,12.18,11.43,12.18,3.08,0,5.56-.36,7.46-1.07v-9.66h-8.64v-3.81h13.63v16.64c-1.29.82-2.98,1.5-5.07,2.04-2.09.54-4.61.81-7.54.81-5.58,0-9.84-1.51-12.77-4.54Z"/>
        <path class="cls-2" d="M353.6,64.18h15.89c3.76,0,6.55.97,8.37,2.9,1.82,1.93,2.74,4.65,2.74,8.16,0,2.47-.62,4.55-1.85,6.25-1.23,1.7-2.98,2.89-5.23,3.57.61.43,1.09.9,1.45,1.42.36.52.73,1.26,1.13,2.23l4.35,10.04h-6.01l-4.24-9.66c-.43-.97-.93-1.64-1.5-2.01-.57-.38-1.49-.56-2.74-.56h-6.49v12.24h-5.85v-34.56ZM367.93,81.78c4.54,0,6.82-2.18,6.82-6.55s-2.09-6.49-6.28-6.49h-9.02v13.04h8.48Z"/>
        <path class="cls-2" d="M389.04,94.96c-2.7-2.88-4.05-7.34-4.05-13.39s1.34-10.77,4.03-13.63c2.68-2.86,6.8-4.29,12.34-4.29s9.66,1.43,12.34,4.29c2.68,2.86,4.03,7.41,4.03,13.63s-1.35,10.51-4.05,13.39c-2.7,2.88-6.81,4.32-12.32,4.32s-9.62-1.44-12.32-4.32ZM409.36,91.34c1.68-2,2.52-5.26,2.52-9.77s-.83-8.01-2.5-9.98c-1.66-1.97-4.34-2.95-8.02-2.95s-6.31.98-7.97,2.95c-1.66,1.97-2.5,5.3-2.5,9.98s.84,7.72,2.52,9.74c1.68,2.02,4.33,3.03,7.94,3.03s6.31-1,8-3.01Z"/>
        <path class="cls-2" d="M427.66,95.85c-2.61-2.29-3.92-5.6-3.92-9.93v-21.74h5.85v21.52c0,2.86.79,5.02,2.36,6.47,1.57,1.45,3.85,2.17,6.82,2.17s5.19-.72,6.76-2.17c1.57-1.45,2.36-3.6,2.36-6.47v-21.52h5.8v21.74c0,4.33-1.3,7.64-3.89,9.93-2.59,2.29-6.27,3.43-11.03,3.43s-8.5-1.14-11.11-3.43Z"/>
        <path class="cls-2" d="M460.72,64.18h15.4c3.83,0,6.72,1.06,8.67,3.17,1.95,2.11,2.92,4.9,2.92,8.37s-1.06,6.19-3.19,8.27c-2.13,2.08-5,3.11-8.61,3.11h-9.34v11.65h-5.85v-34.56ZM474.83,82.48c2.25,0,3.99-.6,5.21-1.8,1.22-1.2,1.82-2.85,1.82-4.96,0-2.22-.57-3.94-1.72-5.15-1.15-1.22-2.83-1.82-5.04-1.82h-8.53v13.74h8.26Z"/>
      </g>
      <path class="cls-1" d="M0,0l5.3,49.37h74.3L84.95,0H0ZM67.25,86.33H17.67c-3.41,0-6.65-1.52-8.83-4.14l1.72,16.55h63.8l1.75-16.59-.05.06c-2.18,2.61-5.41,4.12-8.81,4.12Z"/>
    </g>
  </g>
</svg>