<?xml version="1.0" encoding="UTF-8"?>
<svg id="Layer_2" data-name="Layer 2" xmlns="http://www.w3.org/2000/svg" viewBox="0 0 169.18 29.94">
  <defs>
    <style>
      .cls-1 {
        fill: #0175b5;
      }

      .cls-2 {
        fill: #1f2321;
      }
    </style>
  </defs>
  <g id="FINAL_ORIGINALS" data-name="FINAL ORIGINALS">
    <g>
      <g>
        <path class="cls-2" d="M35.62,1.23h6.72c1.57,0,2.76.45,3.57,1.35.81.9,1.22,2.08,1.22,3.53,0,.93-.2,1.76-.59,2.48-.4.72-.96,1.28-1.71,1.69-.74.4-1.6.6-2.58.6h-3.22v4.01h-3.41V1.23ZM41.49,8.25c.71,0,1.24-.19,1.61-.58.37-.39.55-.92.55-1.58,0-.72-.17-1.27-.51-1.66-.34-.38-.86-.57-1.55-.57h-2.57v4.39h2.46Z"/>
        <path class="cls-2" d="M49,1.23h10.07v2.63h-6.66v2.86h5.88v2.67h-5.88v2.86h6.66v2.63h-10.07V1.23Z"/>
        <path class="cls-2" d="M61.24,1.23h6.83c1.57,0,2.75.41,3.53,1.24.79.83,1.18,1.98,1.18,3.45,0,.92-.23,1.73-.69,2.42-.46.69-1.1,1.21-1.92,1.55.18.16.34.33.46.51s.26.45.41.81l1.61,3.69h-3.56l-1.53-3.48c-.13-.31-.29-.53-.49-.66-.2-.13-.48-.19-.85-.19h-1.57v4.33h-3.41V1.23ZM67.18,7.93c.68,0,1.2-.17,1.57-.51.37-.34.55-.84.55-1.51,0-1.37-.66-2.06-1.97-2.06h-2.67v4.07h2.52Z"/>
        <path class="cls-2" d="M76.86,14.9c-.79-.13-1.46-.33-2.03-.58v-2.91c.64.28,1.33.51,2.08.67.75.16,1.46.24,2.14.24.92,0,1.57-.08,1.95-.24.38-.16.57-.5.57-1.01,0-.35-.1-.63-.3-.84s-.5-.38-.9-.53-1.06-.36-1.98-.63c-.95-.28-1.69-.6-2.24-.94-.54-.35-.94-.76-1.18-1.25-.24-.49-.36-1.1-.36-1.83,0-1.31.47-2.31,1.41-3,.94-.69,2.31-1.03,4.12-1.03.75,0,1.5.06,2.26.17.76.11,1.38.25,1.88.42v2.93c-1.17-.47-2.38-.7-3.63-.7-.86,0-1.51.08-1.93.24-.42.16-.64.48-.64.94,0,.3.08.53.25.71s.44.33.82.47c.38.13.96.31,1.77.52,1.09.3,1.93.65,2.53,1.06.6.41,1.02.88,1.25,1.41.23.53.35,1.16.35,1.88,0,1.24-.48,2.23-1.44,2.95-.96.72-2.38,1.08-4.24,1.08-.91,0-1.75-.07-2.53-.2Z"/>
        <path class="cls-2" d="M87.35,1.23h6.72c1.57,0,2.76.45,3.57,1.35.81.9,1.22,2.08,1.22,3.53,0,.93-.2,1.76-.59,2.48-.4.72-.96,1.28-1.71,1.69-.74.4-1.6.6-2.58.6h-3.22v4.01h-3.41V1.23ZM93.22,8.25c.71,0,1.24-.19,1.61-.58.37-.39.55-.92.55-1.58,0-.72-.17-1.27-.51-1.66-.34-.38-.86-.57-1.55-.57h-2.57v4.39h2.46Z"/>
        <path class="cls-2" d="M100.73,1.23h10.07v2.63h-6.66v2.86h5.88v2.67h-5.88v2.86h6.66v2.63h-10.07V1.23Z"/>
        <path class="cls-2" d="M113.28,13.28c-1.27-1.22-1.9-2.92-1.9-5.11,0-2.3.62-4.07,1.85-5.3,1.23-1.23,3.05-1.84,5.47-1.84.79,0,1.52.06,2.17.18.66.12,1.31.29,1.96.52v2.99c-1.23-.51-2.52-.76-3.88-.76s-2.45.34-3.11,1.02-.99,1.75-.99,3.2c0,1.37.34,2.39,1.03,3.04.69.66,1.72.99,3.11.99s2.66-.25,3.86-.74v3.01c-1.24.42-2.62.64-4.14.64-2.36,0-4.17-.61-5.44-1.82Z"/>
        <path class="cls-2" d="M127.75,3.86h-4.01V1.23h11.43v2.63h-4.01v11.03h-3.42V3.86Z"/>
        <path class="cls-2" d="M137.02,1.23h3.41v13.66h-3.41V1.23Z"/>
        <path class="cls-2" d="M142.71,1.23h3.56l3.48,9.76,3.5-9.76h3.58l-5.22,13.66h-3.69l-5.22-13.66Z"/>
        <path class="cls-2" d="M159.1,1.23h10.07v2.63h-6.66v2.86h5.88v2.67h-5.88v2.86h6.66v2.63h-10.07V1.23Z"/>
      </g>
      <g>
        <path class="cls-2" d="M35.62,19.36h4.22c1.56,0,2.71.42,3.45,1.25.73.83,1.1,2.17,1.1,4.03s-.37,3.08-1.1,3.91c-.73.83-1.88,1.24-3.45,1.24h-4.22v-10.42ZM39.57,28.42c.72,0,1.3-.11,1.74-.32.44-.21.77-.59.99-1.14.22-.55.33-1.33.33-2.33s-.1-1.8-.31-2.36c-.21-.56-.53-.96-.96-1.19-.44-.23-1.03-.35-1.79-.35h-2.18v7.69h2.18Z"/>
        <path class="cls-2" d="M46.29,19.36h7.27v1.38h-5.5v3.16h4.9v1.36h-4.9v3.17h5.5v1.36h-7.27v-10.42Z"/>
        <path class="cls-2" d="M55.25,29.42v-1.55c1,.39,2.03.58,3.09.58.87,0,1.51-.1,1.9-.31.39-.21.59-.59.59-1.15,0-.36-.08-.64-.25-.85-.17-.21-.44-.39-.82-.54s-.94-.32-1.7-.52c-1.12-.29-1.91-.66-2.36-1.11-.45-.45-.68-1.07-.68-1.85,0-.93.34-1.65,1.02-2.16s1.67-.77,2.98-.77c.57,0,1.12.04,1.66.12s.97.18,1.3.3v1.55c-.82-.31-1.73-.47-2.72-.47-.82,0-1.44.11-1.84.32-.41.22-.62.58-.62,1.1,0,.31.08.56.23.75.15.19.4.36.75.5.35.15.88.3,1.58.48,1.22.31,2.07.72,2.54,1.21.47.5.71,1.14.71,1.93,0,.93-.35,1.65-1.04,2.17-.7.52-1.72.78-3.07.78s-2.43-.17-3.25-.52Z"/>
        <path class="cls-2" d="M64.49,19.36h1.76v10.42h-1.76v-10.42Z"/>
        <path class="cls-2" d="M69.46,28.58c-.88-.91-1.33-2.18-1.33-3.79,0-1.76.44-3.13,1.31-4.11.87-.98,2.18-1.47,3.92-1.47,1.15,0,2.19.16,3.09.47v1.52c-.9-.32-1.88-.49-2.95-.49-1.28,0-2.2.34-2.76,1.01-.56.67-.83,1.7-.83,3.07,0,2.45,1.15,3.67,3.45,3.67.93,0,1.68-.11,2.25-.32v-2.91h-2.61v-1.15h4.11v5.02c-.39.25-.9.45-1.53.62-.63.16-1.39.24-2.27.24-1.68,0-2.97-.46-3.85-1.37Z"/>
        <path class="cls-2" d="M79,19.36h1.55l5.44,7.67v-7.67h1.75v10.42h-1.55l-5.42-7.66v7.66h-1.76v-10.42Z"/>
        <path class="cls-2" d="M97.11,28.58c-.88-.91-1.33-2.18-1.33-3.79,0-1.76.44-3.13,1.31-4.11.87-.98,2.18-1.47,3.92-1.47,1.15,0,2.19.16,3.09.47v1.52c-.9-.32-1.88-.49-2.95-.49-1.28,0-2.2.34-2.76,1.01-.56.67-.83,1.7-.83,3.07,0,2.45,1.15,3.67,3.45,3.67.93,0,1.68-.11,2.25-.32v-2.91h-2.61v-1.15h4.11v5.02c-.39.25-.9.45-1.53.62-.63.16-1.39.24-2.27.24-1.68,0-2.97-.46-3.85-1.37Z"/>
        <path class="cls-2" d="M106.64,19.36h4.79c1.13,0,1.97.29,2.53.87.55.58.83,1.4.83,2.46,0,.75-.19,1.37-.56,1.89-.37.51-.9.87-1.58,1.08.18.13.33.27.44.43.11.16.22.38.34.67l1.31,3.03h-1.81l-1.28-2.91c-.13-.29-.28-.49-.45-.61-.17-.11-.45-.17-.83-.17h-1.96v3.69h-1.76v-10.42ZM110.96,24.67c1.37,0,2.05-.66,2.05-1.98s-.63-1.96-1.89-1.96h-2.72v3.93h2.56Z"/>
        <path class="cls-2" d="M117.33,28.64c-.81-.87-1.22-2.21-1.22-4.04s.4-3.25,1.21-4.11c.81-.86,2.05-1.29,3.72-1.29s2.91.43,3.72,1.29,1.21,2.23,1.21,4.11-.41,3.17-1.22,4.04c-.82.87-2.05,1.3-3.71,1.3s-2.9-.43-3.71-1.3ZM123.46,27.55c.51-.6.76-1.59.76-2.95s-.25-2.42-.75-3.01c-.5-.59-1.31-.89-2.42-.89s-1.9.3-2.4.89c-.5.59-.75,1.6-.75,3.01s.25,2.33.76,2.94c.51.61,1.31.92,2.4.92s1.9-.3,2.41-.91Z"/>
        <path class="cls-2" d="M128.98,28.91c-.79-.69-1.18-1.69-1.18-2.99v-6.56h1.76v6.49c0,.86.24,1.51.71,1.95.47.44,1.16.66,2.06.66s1.56-.22,2.04-.66c.48-.44.71-1.09.71-1.95v-6.49h1.75v6.56c0,1.31-.39,2.3-1.17,2.99s-1.89,1.04-3.33,1.04-2.56-.35-3.35-1.04Z"/>
        <path class="cls-2" d="M138.95,19.36h4.65c1.15,0,2.03.32,2.61.96.59.64.88,1.48.88,2.53s-.32,1.87-.96,2.49c-.64.63-1.51.94-2.6.94h-2.82v3.51h-1.76v-10.42ZM143.2,24.88c.68,0,1.2-.18,1.57-.54.37-.36.55-.86.55-1.5,0-.67-.17-1.19-.52-1.55-.35-.37-.85-.55-1.52-.55h-2.57v4.14h2.49Z"/>
      </g>
      <path class="cls-1" d="M0,0l1.6,14.89h22.41l1.62-14.89H0ZM20.28,26.04H5.33c-1.03,0-2-.46-2.66-1.25l.52,4.99h19.24l.53-5-.02.02c-.66.79-1.63,1.24-2.66,1.24Z"/>
    </g>
  </g>
</svg>